<svg width="1269" height="724" viewBox="0 0 1269 724" fill="none" xmlns="http://www.w3.org/2000/svg">
<g clip-path="url(#clip0_1829_2)">
<g opacity="0.5" filter="url(#filter0_f_1829_2)">
<path d="M664.405 283.191C640.43 193.717 889.328 49.2846 1220.33 -39.4079C1551.34 -128.1 1839.11 -127.467 1863.08 -37.9929C1887.05 51.4811 1638.16 195.914 1307.15 284.606C976.147 373.299 688.379 372.665 664.405 283.191Z" fill="url(#paint0_linear_1829_2)"/>
</g>
<g filter="url(#filter1_f_1829_2)">
<path d="M707.41 538.081C683.435 448.607 932.332 304.175 1263.34 215.482C1594.34 126.789 1882.11 127.423 1906.08 216.897C1930.06 306.371 1681.16 450.804 1350.16 539.496C1019.15 628.189 731.384 627.555 707.41 538.081Z" fill="url(#paint1_linear_1829_2)"/>
</g>
</g>
<defs>
<filter id="filter0_f_1829_2" x="462.808" y="-305.515" width="1601.87" height="856.229" filterUnits="userSpaceOnUse" color-interpolation-filters="sRGB">
<feFlood flood-opacity="0" result="BackgroundImageFix"/>
<feBlend mode="normal" in="SourceGraphic" in2="BackgroundImageFix" result="shape"/>
<feGaussianBlur stdDeviation="100" result="effect1_foregroundBlur_1829_2"/>
</filter>
<filter id="filter1_f_1829_2" x="505.813" y="-50.6252" width="1601.87" height="856.229" filterUnits="userSpaceOnUse" color-interpolation-filters="sRGB">
<feFlood flood-opacity="0" result="BackgroundImageFix"/>
<feBlend mode="normal" in="SourceGraphic" in2="BackgroundImageFix" result="shape"/>
<feGaussianBlur stdDeviation="100" result="effect1_foregroundBlur_1829_2"/>
</filter>
<linearGradient id="paint0_linear_1829_2" x1="1220.33" y1="-39.4079" x2="-117.349" y2="319.023" gradientUnits="userSpaceOnUse">
<stop stop-color="#AE29FF"/>
<stop offset="0.225209" stop-color="#36BAE4"/>
<stop offset="1" stop-color="#4AFFF5" stop-opacity="0"/>
</linearGradient>
<linearGradient id="paint1_linear_1829_2" x1="1263.34" y1="215.482" x2="-74.3443" y2="573.913" gradientUnits="userSpaceOnUse">
<stop stop-color="#00FFF0"/>
<stop offset="0.225209" stop-color="#9E3875"/>
<stop offset="1" stop-opacity="0"/>
</linearGradient>
<clipPath id="clip0_1829_2">
<rect width="1269" height="724" fill="white"/>
</clipPath>
</defs>
</svg>
