<svg width="896" height="863" viewBox="0 0 896 863" fill="none" xmlns="http://www.w3.org/2000/svg">
<g clip-path="url(#clip0_1874_2)">
<path d="M358 328H411L447 386.24L485 328H538L522 352.96H485L449 411.2H447L411 352.96H374L358 328Z" fill="#FCFCFC"/>
<path d="M374 377.92H412L447 436.16H449L485 377.92H522L487 432L538 511.04H522L487 456.96L479 469.44L522 536H485L449 477.76H447L410 536H374L417 469.44L409 456.96L374 511.04H358L409 432L374 377.92Z" fill="#FCFCFC"/>
<path d="M282.903 596.391C264.232 604.22 257.141 623.413 269.344 634.369C294.451 656.914 397.813 645.777 402.676 630.495C407.467 615.439 321.863 580.05 282.903 596.391Z" stroke="white" stroke-opacity="0.05" stroke-width="10" stroke-miterlimit="10"/>
<path d="M329.167 546.245C371.816 531.284 443.426 637.803 413.867 662.951C395.693 678.415 351.698 676.482 315.82 671.4C282.139 666.63 234.013 647.126 222.14 614.733C215.853 597.536 219.627 573.035 232.942 564.455C243.247 557.816 257.159 560.803 260.228 559.699C274.858 565.777 277.005 568.139 288.661 569.564C303.897 571.429 317.439 550.358 329.167 546.245Z" stroke="white" stroke-opacity="0.05" stroke-width="10" stroke-miterlimit="10"/>
<path d="M372.439 493.854C421.971 501.773 475.797 657.358 422.066 693.163C387.847 715.967 328.191 705.898 286.609 693.842C248.413 682.768 184.811 645.813 171.944 592.852C164.463 562.079 173.553 518.789 199.595 506.267C220.355 496.289 247.102 504.869 251.812 505.53C279.649 520.527 281.9 528.157 302.627 533.293C330.071 540.086 351.739 490.528 372.439 493.854Z" stroke="white" stroke-opacity="0.05" stroke-width="10" stroke-miterlimit="10"/>
<path d="M412.575 441.812C467.263 456.411 505.03 677.134 427.128 723.719C376.851 753.781 301.516 735.747 254.262 716.627C211.514 699.336 132.703 644.922 118.611 571.316C110.109 526.926 124.297 464.941 163.108 448.423C194.294 435.146 234.122 448.772 240.25 451.704C283.098 472.218 283.64 488.518 313.47 497.366C353.095 509.15 383.933 434.182 412.575 441.812Z" stroke="white" stroke-opacity="0.05" stroke-width="10" stroke-miterlimit="10"/>
<path d="M450.296 392.136C510.861 413.197 531.751 699.055 429.777 756.646C363.373 793.813 272.39 768.014 219.505 741.789C172.156 718.315 78.2359 646.447 62.8462 552.146C53.3864 494.18 72.6088 413.478 124.193 392.937C165.824 376.374 218.416 395.801 226.266 400.232C281.498 431.403 282.926 451.315 321.85 463.81C373.664 480.585 414.043 379.532 450.296 392.136Z" stroke="white" stroke-opacity="0.05" stroke-width="10" stroke-miterlimit="10"/>
<path d="M83.5828 338.111C135.641 318.267 200.965 343.469 210.587 349.425C278.054 391.185 280.548 414.623 328.553 430.883C392.566 452.564 442.726 325.168 486.291 343.089C553.211 370.617 556.967 721.976 430.699 790.202C348.308 834.719 241.502 800.941 183.017 767.575C131.076 737.947 22.1143 648.624 5.39128 533.61C-5.00412 462.072 19.2172 362.644 83.5828 338.111Z" stroke="white" stroke-opacity="0.05" stroke-width="10" stroke-miterlimit="10"/>
<path d="M646.905 301.908C626.399 301.736 601.807 266.125 620.198 260.179C630.819 256.739 658.941 262.179 669.987 271.859C685.544 285.48 661.016 302.03 646.905 301.908Z" stroke="white" stroke-opacity="0.05" stroke-width="10" stroke-miterlimit="10"/>
<path d="M591.177 265.166C593.183 260.387 602.58 258.265 611.154 252.445C628.546 240.633 631.041 235.022 643.393 227.899C648.211 225.116 654.692 221.459 661.02 223.134C670.71 225.7 673.128 236.805 685.427 256.364C701.372 281.779 707.411 288.35 702.855 301.817C701.793 304.949 700.419 315.09 692.74 321.277C682.105 329.83 669.639 323.223 654.055 328.884C635.339 335.672 626.06 347.755 617.938 342.415C612.216 338.654 612.004 328.354 607.719 310.42C604.456 296.758 602.404 287.793 598.435 280.48C593.676 271.773 588.944 270.479 591.177 265.166Z" stroke="white" stroke-opacity="0.05" stroke-width="10" stroke-miterlimit="10"/>
<path d="M559.832 275.126C560.18 266.655 573.468 262.555 584.42 250.313C606.878 225.202 596.474 207.258 614.476 188.912C622.114 181.124 634.101 173.58 646.114 175.042C663.162 177.119 668.889 194.755 695.135 230.51C729.449 277.258 744.066 286.413 740.861 311.325C740.206 316.403 739.569 335.898 726.159 347.633C708.274 363.282 686.837 349.045 658.837 360.806C627.551 373.93 615.859 401.988 605.31 396.182C597.983 392.149 600.79 375.912 595.158 344.243C591.172 321.734 588.709 308.578 580.74 297.803C570.684 284.213 559.457 284.326 559.832 275.126Z" stroke="white" stroke-opacity="0.05" stroke-width="10" stroke-miterlimit="10"/>
<path d="M528.456 284.978C527.1 272.836 544.307 266.732 557.654 248.069C585.134 209.648 561.441 179.617 585.527 149.813C595.836 137.06 613.518 125.651 631.176 126.841C655.651 128.489 664.695 152.519 704.848 204.548C757.638 272.529 780.373 284.498 778.881 320.725C778.588 327.789 778.723 356.589 759.591 373.894C734.452 396.625 703.998 374.731 663.637 392.629C619.75 412.088 605.685 456.107 592.677 449.853C583.751 445.527 589.468 423.37 582.594 377.967C577.848 346.61 574.987 329.327 563.037 315.027C547.633 296.599 529.907 298.057 528.456 284.978Z" stroke="white" stroke-opacity="0.05" stroke-width="10" stroke-miterlimit="10"/>
<path d="M497.008 294.803C493.966 279.005 515.042 270.872 530.815 245.801C563.258 194.049 526.228 152.048 556.51 110.69C569.455 92.9958 592.876 77.7179 616.171 78.6139C648.089 79.8449 660.306 110.351 714.471 178.563C785.571 267.895 816.513 282.648 816.788 330.101C816.843 339.152 817.738 377.229 792.906 400.128C760.482 429.914 721.069 400.377 668.319 424.429C611.823 450.197 595.385 510.218 579.972 503.502C569.441 498.895 578.074 470.801 569.956 411.668C564.438 371.459 561.197 350.072 545.265 332.228C524.501 308.986 500.28 311.791 497.008 294.803Z" stroke="white" stroke-opacity="0.05" stroke-width="10" stroke-miterlimit="10"/>
<path d="M465.501 304.623C470.594 325.531 501.302 321.367 527.421 349.425C547.34 370.816 550.96 396.299 557.251 445.364C566.594 518.223 555.059 552.259 567.195 557.142C585.034 564.324 603.841 488.297 672.957 456.225C738.068 426.013 786.52 463.257 826.176 426.357C856.747 397.906 855.048 350.552 854.65 339.469C852.544 280.801 813.444 263.252 724.03 152.569C655.85 68.1738 640.473 31.201 601.093 30.3819C572.167 29.78 542.992 48.9362 527.421 71.5633C490.96 124.511 541.401 178.504 503.918 243.53C485.754 275.04 460.759 285.173 465.501 304.623Z" stroke="white" stroke-opacity="0.05" stroke-width="10" stroke-miterlimit="10"/>
<path d="M726.086 641.134C720.735 638.419 709.499 643.65 708.504 651.801C707.379 661.046 720.093 668.694 725.679 666.318C732.287 663.503 733.187 644.727 726.086 641.134Z" stroke="white" stroke-opacity="0.05" stroke-width="10" stroke-miterlimit="10"/>
<path d="M741.164 690.258C750.285 681.718 754.271 666.047 758.832 639.184C763.352 612.547 762.642 593.477 758.669 592.092C756.504 591.345 750.371 597.188 745.11 601.469C735.261 609.461 718.403 608.574 714.082 609.438C698.263 612.606 693.616 618.489 687.004 629.757C683.944 634.961 676.808 646.501 673.666 660.078C668.875 680.637 647.402 686.972 650.019 695.213C652.22 702.092 673.495 703.762 687.289 703.956C707.058 704.237 727.062 703.445 741.164 690.258Z" stroke="white" stroke-opacity="0.05" stroke-width="10" stroke-miterlimit="10"/>
<path d="M756.974 713.215C771.966 697.955 777.864 672.346 786.949 624.453C796.178 576.33 796.12 543.321 791.573 542.09C788.16 541.149 777.11 553.046 767.718 561.55C750.014 577.647 718.321 574.999 711.79 576.031C682.005 580.638 674.665 591.676 663.122 612.538C658.313 621.227 645.12 642.406 639.108 667.418C629.856 705.735 585.992 715.767 589.622 729.973C592.654 741.802 633.332 743.617 658.927 742.644C695.067 741.237 731.641 739.01 756.974 713.215Z" stroke="white" stroke-opacity="0.05" stroke-width="10" stroke-miterlimit="10"/>
<path d="M772.698 736.023C793.575 714.048 801.317 678.482 814.976 609.574C828.847 539.95 829.493 493.08 824.386 491.912C819.708 490.826 803.749 508.747 790.253 521.495C764.739 545.738 718.172 541.28 709.426 542.448C665.684 548.295 655.61 564.645 639.167 595.147C632.604 607.316 613.364 638.138 604.474 674.573C590.774 730.652 524.515 744.373 529.148 764.547C533.017 781.327 593.106 783.359 630.494 781.137C682.995 778.173 736.192 774.453 772.698 736.023Z" stroke="white" stroke-opacity="0.05" stroke-width="10" stroke-miterlimit="10"/>
<path d="M788.373 758.818C815.148 730.127 824.725 684.601 842.958 594.676C861.489 503.561 862.844 442.843 857.159 441.716C851.211 440.526 830.334 464.398 812.743 481.4C779.369 513.734 717.982 507.512 707.022 508.847C649.323 515.857 636.437 537.561 615.167 577.733C606.824 593.373 581.563 633.848 569.803 681.709C551.642 755.546 462.988 772.96 468.637 799.103C473.333 820.825 552.836 822.993 602.019 819.617C670.859 814.969 740.712 809.896 788.373 758.818Z" stroke="white" stroke-opacity="0.05" stroke-width="10" stroke-miterlimit="10"/>
<path d="M704.595 475.232C632.943 483.378 617.364 510.53 591.149 560.31C581.07 579.448 549.74 629.549 535.105 688.832C512.506 780.436 401.442 801.538 408.1 833.646C413.632 860.346 512.542 862.609 573.522 858.083C658.729 851.748 745.223 845.331 804.029 781.603C836.702 746.192 848.11 690.719 870.921 579.769C894.076 467.158 896.141 392.606 889.904 391.511C882.673 390.244 856.91 420.022 835.215 441.291C793.977 481.712 717.774 473.734 704.595 475.232Z" stroke="white" stroke-opacity="0.05" stroke-width="10" stroke-miterlimit="10"/>
<path d="M122.001 257.559C130.136 288.784 188.531 274.117 258.045 344.447C282.953 369.649 299.653 396.01 332.62 400.11C335.947 400.521 368.973 404.137 392.281 382.913C421.605 356.213 403.707 319.172 437.93 267.514C450.536 248.485 452.633 254.011 461.885 239.004C501.369 174.947 441.148 109.916 475.896 44.8633C491.891 14.9185 515.67 8.04437 513.41 4.13439C503.656 -12.6414 100.017 173.417 122.001 257.559Z" stroke="white" stroke-opacity="0.05" stroke-width="10" stroke-miterlimit="10"/>
<path d="M341.66 357.421C343.658 357.15 365.434 358.779 380.371 343.773C399.259 324.825 385.795 298.735 407.436 263.514C415.399 250.544 416.507 254.06 422.175 243.801C446.355 200.022 402.957 155.981 424.208 113.125C434.043 93.2854 449.569 88.7373 447.259 86.8004C436.814 77.9668 170.389 208.467 191.315 265.252C199.162 286.548 241.995 278.991 291.007 324.861C308.828 341.528 320.896 360.241 341.66 357.421Z" stroke="white" stroke-opacity="0.05" stroke-width="10" stroke-miterlimit="10"/>
<path d="M350.699 314.728C351.269 313.294 361.917 313.325 368.462 304.632C376.959 293.355 367.91 278.33 376.941 259.518C380.254 252.612 380.389 254.088 382.469 248.598C391.395 224.989 364.729 202.072 372.525 181.382C376.173 171.643 382.952 169.982 381.144 169.462C367.929 171.34 241.032 243.643 260.607 272.945C268.25 284.394 295.608 283.847 323.947 305.275C334.718 313.42 341.768 319.385 350.699 314.728Z" stroke="white" stroke-opacity="0.05" stroke-width="10" stroke-miterlimit="10"/>
<path d="M359.739 272.04C352.724 251.517 325.109 244.539 314.993 252.128C300.078 263.333 312.801 277.923 329.909 280.638C342.695 282.652 367.766 295.527 359.739 272.04Z" stroke="white" stroke-opacity="0.05" stroke-width="10" stroke-miterlimit="10"/>
</g>
<defs>
<clipPath id="clip0_1874_2">
<rect width="896" height="863" fill="white"/>
</clipPath>
</defs>
</svg>
